<?xml version="1.0" standalone="no"?>
<!DOCTYPE svg PUBLIC "-//W3C//DTD SVG 20010904//EN"
 "http://www.w3.org/TR/2001/REC-SVG-20010904/DTD/svg10.dtd">
<svg version="1.0" xmlns="http://www.w3.org/2000/svg"
 width="300.000000pt" height="168.000000pt" viewBox="0 0 300.000000 168.000000"
 preserveAspectRatio="xMidYMid meet">

<g transform="translate(0.000000,168.000000) scale(0.100000,-0.100000)"
fill="#000000" stroke="none">
<path d="M0 1262 l0 -419 60 -43 c33 -24 56 -47 50 -50 -15 -9 39 -33 80 -35
19 -2 80 -10 135 -19 158 -25 233 -18 347 35 42 19 50 20 79 9 17 -8 44 -24
59 -36 14 -13 45 -29 68 -37 36 -13 43 -13 54 0 10 12 9 18 -5 28 -22 16 -21
31 4 56 15 15 18 24 10 32 -18 18 -13 31 6 16 10 -8 14 -9 10 -2 -4 6 -3 14 2
17 15 9 25 -14 12 -27 -6 -6 -11 -18 -11 -26 0 -9 8 0 18 18 10 19 34 43 53
53 18 10 26 18 18 18 -9 0 -29 -10 -45 -22 -24 -19 -27 -20 -21 -4 4 10 7 21
7 24 0 11 68 13 74 3 3 -5 -7 -17 -22 -26 -64 -41 -81 -110 -42 -165 62 -87
200 -47 202 60 1 55 -26 91 -83 110 -26 8 -37 16 -27 18 24 5 87 -27 104 -53
8 -12 18 -42 23 -66 7 -33 9 -37 10 -16 1 15 -5 42 -12 60 -16 36 -16 53 -3
49 5 -2 4 3 -2 11 -9 10 -9 14 2 14 18 0 50 -54 36 -62 -15 -9 -12 -35 4 -35
24 0 26 -38 3 -53 -18 -12 -20 -17 -9 -30 10 -12 11 -21 3 -35 -8 -15 -7 -23
5 -33 13 -10 17 -10 25 2 5 8 9 17 9 22 0 4 11 7 25 7 18 0 25 -5 25 -20 0
-23 4 -24 30 -10 23 12 42 6 58 -21 8 -12 9 -18 3 -14 -6 3 -11 1 -11 -4 0 -6
6 -11 14 -11 16 0 46 26 46 39 0 5 11 7 24 6 21 -3 24 0 17 18 -11 29 -28 32
-41 8 -14 -27 -47 -27 -55 -1 -8 24 -18 25 -35 5 -18 -22 -51 2 -44 32 5 20 2
23 -20 23 -30 0 -44 23 -26 45 14 16 5 35 -16 35 -8 0 -14 10 -14 25 0 15 6
25 14 25 22 0 28 17 14 39 -15 24 -3 41 31 44 13 1 21 8 21 19 0 22 10 27 34
18 11 -3 36 -4 56 0 20 4 47 3 59 -2 15 -5 20 -4 15 3 -4 8 3 9 25 4 22 -5 31
-3 31 6 0 11 2 11 13 0 10 -10 7 -16 -12 -32 -24 -19 -24 -19 22 -23 6 -1 20
-10 30 -21 18 -20 18 -20 14 2 -3 13 -1 26 4 29 5 3 7 10 3 15 -4 6 -11 6 -20
-2 -8 -6 -14 -8 -14 -4 0 4 -7 2 -15 -5 -19 -16 -20 -3 -1 15 7 8 16 11 20 8
3 -4 6 5 6 18 0 19 -2 21 -10 9 -5 -8 -12 -11 -16 -7 -8 8 24 36 41 37 6 0 3
-5 -5 -10 -11 -7 -11 -10 -2 -10 7 0 11 -4 8 -8 -10 -17 32 -51 55 -45 17 5
20 3 14 -7 -5 -9 -4 -11 3 -6 25 15 31 -6 9 -27 -13 -12 -16 -17 -7 -11 8 6
21 9 28 7 6 -3 13 4 13 14 2 29 -2 48 -12 51 -22 8 -6 18 22 14 22 -3 27 -7
18 -13 -11 -7 -10 -9 4 -9 10 0 18 8 18 20 1 11 2 26 3 33 1 7 20 13 48 15 25
2 52 9 58 17 16 19 4 65 -15 65 -8 0 -15 9 -15 19 0 41 -109 11 -110 -30 0
-10 -11 -36 -23 -58 l-24 -42 -1 31 c0 16 4 30 9 30 6 0 7 5 4 10 -4 6 -1 9 6
8 7 -2 15 6 17 17 8 38 43 65 84 65 21 0 38 5 38 10 0 17 -78 11 -100 -8 -11
-9 -33 -19 -48 -22 -22 -4 -28 -12 -33 -40 -7 -38 -12 -31 -9 10 2 32 11 40
42 43 13 1 32 10 42 20 11 11 33 17 62 17 37 0 44 3 44 20 0 17 -7 20 -47 20
-27 0 -57 7 -67 15 -11 8 -15 15 -9 15 7 0 15 -5 18 -10 3 -5 28 -10 56 -10
27 0 49 5 49 10 0 6 -17 10 -38 10 -26 0 -45 7 -57 20 -10 11 -28 21 -39 21
-17 1 -18 2 -4 6 10 2 31 -5 47 -16 30 -22 91 -29 91 -11 0 6 -13 10 -28 10
-28 0 -61 24 -61 45 0 5 -8 12 -18 16 -14 6 -15 8 -2 8 8 1 26 -10 39 -24 26
-28 70 -34 70 -10 0 8 9 15 19 15 16 0 21 8 24 43 l4 42 1 -42 c1 -31 6 -43
17 -43 11 0 15 14 17 58 l1 57 6 -60 c5 -53 7 -58 18 -40 9 15 12 16 13 5 0
-9 9 -16 20 -16 16 0 20 7 21 36 1 36 3 34 13 -12 5 -20 13 -28 28 -28 12 0
19 -3 15 -6 -3 -3 -50 -6 -104 -6 l-98 1 0 -104 0 -104 96 0 95 -1 1 58 c2
121 4 147 11 135 4 -6 28 -13 52 -16 l45 -4 -47 -1 c-28 -1 -48 -7 -48 -13 0
-8 17 -9 53 -5 28 3 72 8 97 10 l45 5 -45 -10 c-25 -6 -66 -13 -92 -16 -27 -3
-48 -9 -48 -14 0 -11 106 -12 128 0 27 13 82 21 82 12 0 -10 -51 -19 -147 -27
-61 -6 -81 -18 -45 -27 46 -13 204 -18 217 -7 8 7 20 10 27 7 8 -3 2 -9 -14
-15 -20 -8 -26 -16 -21 -28 5 -13 0 -15 -30 -11 -19 2 -40 0 -46 -6 -7 -7 -22
-7 -48 2 -21 7 -56 11 -78 8 l-40 -4 46 -1 c32 -1 52 -8 64 -22 11 -12 28 -19
43 -18 14 2 27 -2 29 -8 5 -15 -54 -5 -68 12 -7 8 -31 14 -59 14 -39 0 -49 -4
-59 -24 -7 -12 -11 -34 -9 -47 3 -25 9 -26 82 -17 17 2 31 -2 33 -9 3 -9 -11
-13 -49 -14 -29 -1 -43 -4 -30 -6 34 -7 81 -33 59 -33 -11 0 -15 -4 -11 -11
13 -21 -49 1 -86 30 -27 21 -36 37 -38 65 -3 28 -8 36 -23 36 -17 0 -19 -7
-19 -69 0 -39 4 -73 10 -76 14 -8 13 -55 -1 -55 -6 0 -9 9 -6 20 3 10 -1 25
-9 31 -8 7 -12 20 -9 30 5 15 2 17 -10 13 -21 -8 -35 -46 -28 -73 3 -12 1 -21
-6 -21 -17 0 -13 75 4 90 16 14 22 110 6 110 -5 0 -8 -11 -6 -25 1 -14 -6 -36
-16 -49 -11 -13 -19 -30 -19 -38 -1 -14 -34 -58 -44 -58 -3 0 -6 7 -6 15 0 8
5 14 12 13 6 -2 15 12 19 30 7 32 6 33 -25 30 -24 -2 -35 -10 -46 -35 -8 -17
-24 -35 -35 -38 -13 -4 -16 -8 -7 -12 6 -2 10 -9 6 -14 -3 -5 0 -9 6 -9 7 0
10 7 6 15 -4 11 1 14 18 13 15 -1 22 -7 19 -15 -3 -7 -9 -10 -14 -7 -5 3 -9 1
-9 -5 0 -5 -8 -11 -17 -13 -15 -3 -14 -6 6 -17 17 -10 21 -10 16 -1 -5 8 -3
11 6 8 8 -3 13 -11 11 -17 -1 -6 2 -11 8 -11 5 0 10 -5 10 -11 0 -5 -4 -7 -10
-4 -5 3 -10 1 -10 -5 0 -6 7 -13 15 -16 8 -4 15 -11 15 -16 0 -6 -7 -8 -15 -4
-8 3 -14 2 -14 -2 3 -21 -2 -69 -10 -80 -10 -17 -194 -24 -188 -7 3 5 -2 16
-9 23 -12 10 -14 10 -14 -2 0 -9 -11 -16 -27 -18 -21 -2 -27 -8 -25 -22 2 -11
-4 -26 -14 -33 -17 -12 -17 -13 2 -13 16 0 17 -2 4 -10 -8 -5 -10 -10 -4 -10
6 0 19 9 29 20 10 11 13 20 7 20 -6 0 -10 9 -9 19 2 25 12 18 32 -21 13 -27
13 -34 1 -46 -11 -11 -15 -11 -21 -1 -6 8 -4 10 5 4 9 -6 11 -4 5 4 -5 9 -11
9 -17 3 -13 -13 -2 -32 19 -32 10 0 13 -6 9 -18 -4 -11 1 -8 12 7 l19 24 17
-24 c9 -13 16 -19 16 -15 0 5 -7 17 -16 27 -15 16 -15 20 0 41 l17 23 -5 -27
c-3 -16 -1 -28 4 -28 5 0 12 -9 15 -21 6 -17 12 -19 38 -13 41 9 64 22 105 62
19 18 37 31 40 28 3 -3 11 -1 19 5 30 26 9 -5 -52 -73 -36 -40 -65 -77 -65
-82 0 -11 66 -100 130 -176 26 -30 52 -64 58 -74 9 -19 12 -18 44 15 69 71
421 460 529 584 25 29 106 119 180 201 186 205 204 226 218 252 15 28 34 19
25 -11 -6 -20 -80 -116 -136 -177 -13 -14 -57 -63 -98 -110 -41 -47 -95 -108
-120 -135 -25 -28 -72 -81 -105 -119 -33 -39 -86 -99 -119 -135 -108 -121
-149 -177 -114 -155 7 4 8 3 4 -5 -4 -6 -3 -18 4 -26 6 -8 10 -24 8 -37 -3
-21 5 -26 85 -52 48 -16 87 -33 87 -38 0 -13 33 -42 65 -56 23 -11 26 -15 14
-23 -11 -7 -10 -10 9 -15 17 -5 21 -11 16 -23 -4 -9 -9 -31 -12 -49 -3 -27 -1
-32 16 -32 34 0 88 -28 106 -55 l16 -25 160 0 160 0 0 840 0 840 -1500 0
-1500 0 0 -418z m1887 256 c-3 -8 -6 -5 -6 6 -1 11 2 17 5 13 3 -3 4 -12 1
-19z m-107 -28 c27 -53 31 -70 28 -101 l-3 -34 -60 0 -60 0 -3 43 c-2 25 1 42
7 42 6 0 11 10 11 23 0 13 6 29 12 35 17 17 59 11 68 -8z m306 -7 c-10 -10
-19 5 -10 18 6 11 8 11 12 0 2 -7 1 -15 -2 -18z m200 5 c-21 -29 -20 -48 2
-48 13 0 14 -2 3 -9 -8 -6 -10 -14 -5 -22 5 -8 7 -22 6 -31 -2 -12 3 -18 17
-18 16 0 21 6 21 25 0 14 5 25 10 25 6 0 10 -5 10 -11 0 -5 5 -7 11 -3 7 4 9
-2 7 -17 -3 -22 -8 -24 -63 -24 l-60 0 3 40 c5 47 30 115 44 115 5 0 2 -10 -6
-22z m-379 -70 c-3 -7 -5 -2 -5 12 0 14 2 19 5 13 2 -7 2 -19 0 -25z m123 2
c0 -5 -2 -10 -4 -10 -3 0 -8 5 -11 10 -3 6 -1 10 4 10 6 0 11 -4 11 -10z
m-415 -100 c-3 -5 -10 -10 -16 -10 -5 0 -9 5 -9 10 0 6 7 10 16 10 8 0 12 -4
9 -10z m134 -6 c8 -7 -63 -2 -94 7 -20 5 -9 6 30 2 33 -3 62 -7 64 -9z m-44
-24 c-3 -5 -10 -10 -16 -10 -5 0 -9 5 -9 10 0 6 7 10 16 10 8 0 12 -4 9 -10z
m58 3 c-7 -2 -21 -2 -30 0 -10 3 -4 5 12 5 17 0 24 -2 18 -5z m260 -59 c35
-48 31 -131 -6 -136 -51 -7 -88 32 -68 71 7 12 7 22 1 26 -5 3 -6 13 -3 23 17
48 48 55 76 16z m-293 -33 c-8 -5 -33 -10 -55 -11 -63 -3 -66 3 -5 10 30 4 60
7 65 8 6 1 3 -3 -5 -7z m-128 -45 c4 -6 8 -21 8 -33 0 -13 4 -23 9 -23 5 0 11
-22 13 -50 3 -55 -1 -60 -58 -60 -21 0 -33 -4 -29 -10 8 -14 -26 -1 -47 18
-19 16 -25 86 -9 97 5 3 12 19 16 36 10 45 74 61 97 25z m798 -42 c0 -8 -4
-13 -9 -9 -5 3 -12 1 -16 -5 -8 -13 -25 -13 -25 1 0 5 4 8 9 5 5 -3 14 1 21 9
16 19 20 19 20 -1z m-473 -16 c-3 -8 -6 -5 -6 6 -1 11 2 17 5 13 3 -3 4 -12 1
-19z m411 -55 c-10 -2 -26 -2 -35 0 -10 3 -2 5 17 5 19 0 27 -2 18 -5z m12
-45 c6 -18 15 -40 20 -48 4 -9 2 -31 -4 -50 -9 -30 -16 -35 -45 -38 -64 -6
-81 4 -81 48 0 21 5 42 10 45 6 3 10 15 10 25 0 25 27 50 55 50 16 0 26 -9 35
-32z m-935 -7 c-2 -5 8 -14 23 -21 15 -7 22 -15 15 -17 -16 -6 -23 -5 -24 5 0
4 -10 12 -22 19 -12 7 -16 12 -9 13 7 0 10 5 6 12 -4 7 -3 8 5 4 6 -4 9 -11 6
-15z m72 -18 c5 3 15 2 22 -2 9 -6 4 -8 -13 -8 -17 0 -30 7 -37 21 -10 20 -9
20 5 2 8 -10 19 -16 23 -13z m200 11 c-3 -3 -12 -4 -19 -1 -8 3 -5 6 6 6 11 1
17 -2 13 -5z m-429 -23 c11 -7 10 -10 -3 -15 -20 -7 -38 1 -30 15 7 11 16 11
33 0z m962 -21 c0 -5 -2 -10 -4 -10 -3 0 -8 5 -11 10 -3 6 -1 10 4 10 6 0 11
-4 11 -10z m-948 -25 c-2 -14 -9 -25 -14 -25 -5 0 -6 5 -3 10 3 6 -1 10 -9 10
-8 0 -18 5 -22 12 -5 7 -2 9 8 6 8 -4 21 -2 29 3 8 5 15 9 15 9 1 0 -1 -11 -4
-25z m-319 -10 c-3 -9 -8 -13 -11 -11 -3 3 -12 0 -21 -7 -14 -10 -14 -10 -4 4
7 9 10 19 6 22 -3 4 3 7 15 7 15 0 20 -4 15 -15z m158 -21 c-5 -16 -10 -24
-10 -18 -1 7 -8 14 -15 17 -11 4 -13 1 -9 -11 6 -14 5 -15 -9 -2 -22 21 -11
43 18 37 13 -2 24 0 24 6 0 6 2 8 5 6 2 -3 0 -18 -4 -35z m85 -30 c-2 -16 -6
-28 -10 -26 -3 1 -9 2 -13 2 -5 0 -19 10 -33 21 -14 11 -20 18 -14 15 6 -3 21
5 35 18 28 27 40 16 35 -30z m1010 28 c-4 -3 -14 2 -24 12 -16 18 -16 18 6 6
13 -6 21 -14 18 -18z m-951 -32 c3 -5 1 -10 -4 -10 -6 0 -11 5 -11 10 0 6 2
10 4 10 3 0 8 -4 11 -10z m893 -12 c7 -7 12 -21 12 -33 0 -12 5 -26 11 -32 6
-6 9 -25 7 -44 -3 -38 -28 -49 -90 -41 -36 4 -38 6 -38 41 0 20 7 45 15 55 8
11 15 14 15 8 0 -7 15 -12 35 -12 28 0 35 4 35 19 0 22 -23 44 -35 33 -5 -4
-5 -1 -1 6 9 15 19 15 34 0z m-168 -110 c-11 -12 -20 -25 -20 -30 0 -4 -5 -8
-10 -8 -6 0 -1 14 12 30 12 17 26 30 30 30 5 0 0 -10 -12 -22z m-300 -84 c0
-8 -5 -12 -10 -9 -6 4 -8 11 -5 16 9 14 15 11 15 -7z"/>
<path d="M1733 1493 c-7 -2 -13 -15 -13 -27 0 -17 6 -22 30 -24 26 -2 30 1 30
22 0 18 -21 41 -33 35 -1 0 -8 -3 -14 -6z"/>
<path d="M1734 1400 c1 -40 26 -40 26 0 0 19 -5 30 -14 30 -8 0 -13 -11 -12
-30z"/>
<path d="M1543 1153 c-7 -2 -13 -16 -13 -29 0 -22 4 -25 27 -22 31 3 44 35 21
49 -14 10 -17 10 -35 2z"/>
<path d="M1547 1072 c-7 -11 4 -62 13 -62 4 0 8 16 8 35 0 32 -10 46 -21 27z"/>
<path d="M2287 1004 c-4 -4 -7 -16 -7 -26 0 -14 8 -18 35 -18 31 0 34 2 26 23
-8 22 -40 34 -54 21z"/>
<path d="M2293 913 c2 -32 14 -44 34 -36 10 4 11 9 3 18 -6 7 -9 19 -8 26 2 7
-5 14 -14 17 -13 2 -16 -3 -15 -25z"/>
<path d="M2106 763 c-3 -3 -6 -19 -6 -35 0 -20 5 -28 18 -28 15 0 18 6 14 30
-4 31 -15 44 -26 33z"/>
<path d="M1800 1286 c0 -2 8 -10 18 -17 15 -13 16 -12 3 4 -13 16 -21 21 -21
13z"/>
<path d="M2125 1140 c11 -5 34 -9 52 -9 17 -1 35 -5 38 -11 3 -5 15 -10 26
-10 10 0 19 5 19 10 0 6 8 11 18 11 39 3 -48 17 -108 17 -45 0 -59 -2 -45 -8z"/>
<path d="M2055 1001 c-3 -5 -2 -12 3 -15 5 -3 9 1 9 9 0 17 -3 19 -12 6z"/>
<path d="M2115 950 c3 -5 10 -10 16 -10 5 0 9 5 9 10 0 6 -7 10 -16 10 -8 0
-12 -4 -9 -10z"/>
<path d="M1394 906 c-37 -17 -77 -77 -71 -108 4 -20 4 -19 6 5 2 43 57 96 111
106 35 7 38 9 15 10 -16 0 -44 -6 -61 -13z"/>
<path d="M1506 900 c12 -5 25 -13 29 -19 8 -15 4 -14 -34 5 -46 23 -92 11
-130 -32 -94 -106 58 -247 162 -150 34 32 44 85 23 127 -21 42 -20 49 4 20 11
-13 20 -19 20 -13 0 16 -62 72 -79 71 -11 0 -9 -3 5 -9z"/>
<path d="M1657 884 c2 -7 11 -10 19 -7 19 7 18 10 -5 16 -13 3 -18 1 -14 -9z"/>
<path d="M1600 825 c0 -8 7 -15 15 -15 9 0 12 6 9 15 -4 8 -10 15 -15 15 -5 0
-9 -7 -9 -15z"/>
<path d="M1650 830 c0 -5 5 -10 11 -10 5 0 7 5 4 10 -3 6 -8 10 -11 10 -2 0
-4 -4 -4 -10z"/>
<path d="M1732 821 c-11 -7 -11 -9 1 -14 9 -3 18 1 21 9 6 16 -2 18 -22 5z"/>
<path d="M1581 787 c-1 -46 -23 -90 -53 -111 -12 -9 -17 -16 -11 -16 16 0 62
57 69 85 3 12 4 36 1 51 -3 25 -4 23 -6 -9z"/>
<path d="M1645 800 c3 -6 -4 -14 -17 -19 -21 -9 -21 -10 -2 -10 11 -1 25 -6
32 -13 9 -9 12 -7 12 11 0 12 4 19 10 16 6 -3 10 1 10 9 0 10 -9 16 -26 16
-14 0 -23 -4 -19 -10z"/>
<path d="M1748 783 c6 -2 18 -2 25 0 6 3 1 5 -13 5 -14 0 -19 -2 -12 -5z"/>
<path d="M1321 753 c-1 -22 53 -93 71 -93 5 0 -3 11 -18 24 -16 13 -34 39 -40
57 -10 27 -13 29 -13 12z"/>
<path d="M1743 720 c-1 -17 2 -30 7 -30 6 0 10 14 10 30 0 39 -14 39 -17 0z"/>
<path d="M952 720 c0 -14 2 -19 5 -12 2 6 2 18 0 25 -3 6 -5 1 -5 -13z"/>
<path d="M1607 729 c7 -7 15 -10 18 -7 3 3 -2 9 -12 12 -14 6 -15 5 -6 -5z"/>
<path d="M1210 671 c0 -7 -15 -27 -32 -44 -23 -21 -26 -27 -10 -18 25 14 58
59 48 68 -3 3 -6 1 -6 -6z"/>
<path d="M979 643 c6 -13 20 -27 31 -33 27 -15 25 -10 -12 25 -25 24 -29 25
-19 8z"/>
<path d="M1418 653 c7 -3 16 -2 19 1 4 3 -2 6 -13 5 -11 0 -14 -3 -6 -6z"/>
<path d="M1478 653 c7 -3 16 -2 19 1 4 3 -2 6 -13 5 -11 0 -14 -3 -6 -6z"/>
<path d="M1195 611 c-6 -11 9 -23 19 -14 9 9 7 23 -3 23 -6 0 -12 -4 -16 -9z"/>
<path d="M1849 603 c-13 -16 -12 -17 4 -4 16 13 21 21 13 21 -2 0 -10 -8 -17
-17z"/>
<path d="M701 597 c0 -10 -8 -29 -17 -43 -21 -32 -13 -39 57 -51 74 -12 108 7
77 45 -6 7 -19 10 -28 7 -11 -3 -20 1 -24 10 -3 8 -16 15 -30 15 -15 0 -26 7
-29 18 -4 16 -5 16 -6 -1z"/>
<path d="M1184 565 c-19 -14 -18 -14 4 -15 13 0 22 6 22 15 0 19 -1 19 -26 0z"/>
<path d="M1293 573 c9 -2 25 -2 35 0 9 3 1 5 -18 5 -19 0 -27 -2 -17 -5z"/>
<path d="M1490 576 c0 -2 7 -6 15 -10 8 -3 15 -1 15 4 0 6 -7 10 -15 10 -8 0
-15 -2 -15 -4z"/>
<path d="M1116 553 c-4 -9 -2 -21 4 -27 13 -13 46 17 36 33 -11 16 -33 13 -40
-6z"/>
<path d="M1245 560 c-3 -6 1 -7 9 -4 18 7 21 14 7 14 -6 0 -13 -4 -16 -10z"/>
<path d="M1268 544 c-33 -14 -66 -50 -34 -38 8 3 17 0 21 -6 5 -8 11 -8 21 1
7 6 31 9 53 7 22 -2 38 -1 35 1 -2 2 1 10 6 16 8 10 2 16 -21 24 -39 13 -35
14 -81 -5z m85 -21 c-7 -2 -19 -2 -25 0 -7 3 -2 5 12 5 14 0 19 -2 13 -5z"/>
<path d="M1406 529 c16 -20 31 -34 33 -32 3 2 -10 18 -29 36 l-34 32 30 -36z"/>
<path d="M1200 518 c-11 -18 -20 -37 -20 -42 0 -12 1 -10 28 37 26 45 19 50
-8 5z"/>
<path d="M253 523 c9 -2 23 -2 30 0 6 3 -1 5 -18 5 -16 0 -22 -2 -12 -5z"/>
<path d="M0 471 c0 -18 6 -21 40 -21 43 0 54 15 18 23 -13 2 -31 8 -40 12 -14
5 -18 2 -18 -14z"/>
<path d="M875 471 c-28 -7 -28 -8 -8 -14 28 -10 80 2 61 14 -7 5 -15 8 -18 8
-3 -1 -18 -4 -35 -8z"/>
<path d="M1441 464 c0 -11 3 -14 6 -6 3 7 2 16 -1 19 -3 4 -6 -2 -5 -13z"/>
<path d="M1210 435 c-14 -17 2 -51 39 -82 l26 -21 6 41 6 42 1 -42 c2 -40 4
-43 30 -43 35 0 88 33 97 59 3 12 11 21 16 21 5 0 2 -15 -7 -32 -14 -29 -14
-31 0 -18 8 8 18 31 22 50 4 26 3 31 -5 20 -9 -13 -11 -13 -11 1 0 14 -6 16
-33 10 -18 -5 -41 -5 -52 -1 -25 9 -55 1 -55 -14 0 -6 -5 -4 -10 4 -12 19 -55
23 -70 5z m167 -47 c-3 -8 -6 -5 -6 6 -1 11 2 17 5 13 3 -3 4 -12 1 -19z"/>
<path d="M0 399 l0 -44 236 2 c130 1 252 4 271 8 18 3 70 6 113 7 44 0 80 4
80 9 0 16 -44 20 -115 12 -64 -8 -368 2 -424 13 -20 4 -22 7 -10 15 9 6 -6 9
-46 9 -33 0 -70 3 -82 6 -21 6 -23 3 -23 -37z"/>
<path d="M1457 403 c-4 -20 -4 -39 -2 -42 3 -2 5 4 5 15 0 15 4 12 15 -10 8
-15 15 -38 14 -50 0 -21 0 -21 -9 2 -12 29 -33 37 -60 22 -15 -8 -20 -8 -16
-1 11 18 -10 13 -25 -6 -8 -9 -9 -14 -3 -10 7 4 14 -2 17 -14 4 -16 11 -20 29
-16 13 3 32 1 43 -4 15 -6 6 -8 -30 -7 -27 1 -55 5 -62 10 -13 10 -48 -6 -75
-36 -18 -19 -18 -18 -18 12 0 33 -8 40 -27 21 -6 -6 -20 -8 -32 -4 -16 5 -20
12 -15 31 5 19 2 24 -14 24 -11 0 -22 3 -24 8 -3 7 -107 52 -122 52 -5 0 -2
-7 5 -17 13 -15 11 -16 -14 -9 -24 6 -30 3 -34 -14 -3 -13 -11 -19 -19 -16 -8
3 -14 1 -14 -4 0 -6 4 -10 9 -10 5 0 4 -13 -2 -30 -12 -31 -31 -43 -20 -12 4
13 2 13 -9 -3 -9 -11 -18 -30 -22 -42 -6 -19 -4 -23 16 -23 13 0 162 -3 332
-7 181 -3 307 -2 305 3 -20 39 -32 69 -57 139 -32 91 -56 108 -65 48z m61 -78
c-3 -3 -9 2 -12 12 -6 14 -5 15 5 6 7 -7 10 -15 7 -18z m-331 -27 c-3 -8 -6
-5 -6 6 -1 11 2 17 5 13 3 -3 4 -12 1 -19z m210 -50 c-3 -8 -6 -5 -6 6 -1 11
2 17 5 13 3 -3 4 -12 1 -19z"/>
<path d="M1180 409 c0 -26 52 -88 74 -89 5 0 -4 10 -19 22 -15 12 -33 35 -41
52 -7 17 -13 24 -14 15z"/>
<path d="M1278 313 c7 -3 16 -2 19 1 4 3 -2 6 -13 5 -11 0 -14 -3 -6 -6z"/>
<path d="M1328 313 c6 -2 18 -2 25 0 6 3 1 5 -13 5 -14 0 -19 -2 -12 -5z"/>
<path d="M795 160 c-60 -3 -104 -7 -97 -8 6 -1 12 -6 12 -10 0 -9 -129 -19
-395 -31 l-140 -6 168 -7 c200 -9 1794 -23 1787 -16 -5 6 -444 17 -750 20
l-185 1 249 8 c137 5 257 11 265 15 9 4 25 6 36 5 17 -1 17 0 4 8 -16 11 -577
32 -744 29 -55 -1 -149 -5 -210 -8z"/>
<path d="M665 150 c3 -5 8 -10 11 -10 2 0 4 5 4 10 0 6 -5 10 -11 10 -5 0 -7
-4 -4 -10z"/>
</g>
</svg>
